<?xml version="1.0" encoding="utf-8"?>
<svg viewBox="0 0 30 25" fill="#C37272" xmlns="http://www.w3.org/2000/svg">
  <path d="M6.55477 24.112C4.69877 24.112 3.16277 23.408 1.94677 22C0.73077 20.592 0.12277 18.544 0.12277 15.856C0.12277 12.976 0.82677 10.128 2.23477 7.31199C3.70677 4.496 5.78677 2.224 8.47477 0.495996L10.8748 3.75999C9.27477 4.976 8.09077 6.256 7.32277 7.6C6.61877 8.944 6.36277 10.48 6.55477 12.208C8.28277 12.208 9.72277 12.784 10.8748 13.936C12.0268 15.088 12.6028 16.496 12.6028 18.16C12.6028 19.824 12.0268 21.232 10.8748 22.384C9.72277 23.536 8.28277 24.112 6.55477 24.112ZM23.8348 24.112C21.9788 24.112 20.4428 23.408 19.2268 22C18.0108 20.592 17.4028 18.544 17.4028 15.856C17.4028 12.976 18.1068 10.128 19.5148 7.31199C20.9868 4.496 23.0668 2.224 25.7548 0.495996L28.1548 3.75999C26.5548 4.976 25.3708 6.256 24.6028 7.6C23.8988 8.944 23.6428 10.48 23.8348 12.208C25.5628 12.208 27.0028 12.784 28.1548 13.936C29.3068 15.088 29.8828 16.496 29.8828 18.16C29.8828 19.824 29.3068 21.232 28.1548 22.384C27.0028 23.536 25.5628 24.112 23.8348 24.112Z" style=""/>
</svg>